<svg width="64" height="92" viewBox="0 0 64 92" fill="none" xmlns="http://www.w3.org/2000/svg">
<g opacity="0.94">
<rect x="0.5" y="0.5" width="63" height="91" rx="5" fill="#FFFBF8" stroke="#404C6E"/>
<rect x="33" y="6" width="24" height="24" rx="2" fill="#404C6E"/>
<rect x="7.5" y="34" width="49" height="1.5" rx="0.75" fill="#404C6E" stroke="#404C6E"/>
<rect x="7.5" y="39" width="49" height="1.5" rx="0.75" fill="#404C6E" stroke="#404C6E"/>
<rect x="7.5" y="44" width="49" height="1.5" rx="0.75" fill="#404C6E" stroke="#404C6E"/>
<rect x="7.5" y="49" width="49" height="1.5" rx="0.7" fill="#404C6E" stroke="#404C6E"/>
<rect x="7.5" y="54" width="49" height="1.5" rx="0.75" fill="#404C6E" stroke="#404C6E"/>
<rect x="7.5" y="59" width="49" height="1.5" rx="0.75" fill="#404C6E" stroke="#404C6E"/>
<rect x="7.5" y="64" width="49" height="1.5" rx="0.75" fill="#404C6E" stroke="#404C6E"/>
<rect x="7.5" y="69" width="49" height="1.5" rx="0.75" fill="#404C6E" stroke="#404C6E"/>
<rect x="7.5" y="74" width="49" height="1.5" rx="0.7" fill="#404C6E" stroke="#404C6E"/>
<rect x="7.5" y="79" width="49" height="1.5" rx="0.75" fill="#404C6E" stroke="#404C6E"/>
<rect x="7.5" y="84" width="49" height="1.5" rx="0.75" fill="#404C6E" stroke="#404C6E"/>
<rect x="7.5" y="7" width="22" height="1.5" rx="0.75" fill="#404C6E" stroke="#404C6E"/>
<rect x="7.5" y="12.5" width="22" height="1.5" rx="0.75" fill="#404C6E" stroke="#404C6E"/>
<rect x="7.5" y="18" width="22" height="1.5" rx="0.75" fill="#404C6E" stroke="#404C6E"/>
<rect x="7.5" y="23.5" width="22" height="1.5" rx="0.75" fill="#404C6E" stroke="#404C6E"/>
<rect x="7.5" y="29" width="22" height="1.5" rx="0.75" fill="#404C6E" stroke="#404C6E"/>
</g>
</svg>
